<?xml version="1.0" encoding="iso-8859-1"?>
<!-- Generator: Adobe Illustrator 18.1.1, SVG Export Plug-In . SVG Version: 6.00 Build 0)  -->
<svg version="1.1" id="Capa_1" xmlns="http://www.w3.org/2000/svg" xmlns:xlink="http://www.w3.org/1999/xlink" x="0px" y="0px"
	 viewBox="0 0 59.666 59.666" style="enable-background:new 0 0 59.666 59.666;" xml:space="preserve">
<g>
	<g>
		<path style="fill:#010002;" d="M5.872,26.881c2.515,0,2.537-3.895,0.029-3.895C3.386,22.986,3.364,26.881,5.872,26.881z"/>
		<path style="fill:#010002;" d="M59.112,29.793c-0.35-0.303-1.523-0.336-1.65-0.336c-3.566,0-8.273-7.148-10.4-11.656
			c-0.028-0.059-0.062-0.118-0.098-0.173c-2.803-4.409-6.035-6.644-9.607-6.644c-7.894,0-11.704,8.947-11.96,9.427
			c-0.405,0.755-1.711,4.441-1.711,4.441s4.593-5.428,7.259-5.526c-0.946,1.308-1.327,2.837-1.327,2.837s1.92-3.048,7.174-0.204
			c2.211,1.238,2.829,3.273,2.829,3.273s3.854,7.446,0.824,11.938c-2.455,3.883-8.885,4.302-11.534,4.302
			c-0.9,0-1.472-0.048-1.472-0.048c-0.049-0.004-0.096-0.006-0.141-0.006H10.78c0.008-0.826,0.025-1.652,0.085-2.479
			c0.82-0.865,1.538-1.807,2.113-2.835c0.27,0.243,0.527,0.501,0.771,0.778c0.156,0.178,0.362,0.283,0.582,0.337
			c0.213,0.095,0.465,0.126,0.753,0.056c1.266-0.311,2.467-0.806,3.681-1.277c0.591-0.23,0.996-0.775,0.815-1.438
			c-0.156-0.566-0.843-1.048-1.437-0.816c-0.93,0.362-1.855,0.737-2.808,1.034c-0.333-0.354-0.693-0.688-1.074-1
			c-0.057-0.159-0.137-0.323-0.252-0.487c-0.81-1.16-1.62-2.322-2.43-3.483c0.895,0.136,1.793,0.243,2.698,0.317
			c1.501,0.123,1.49-2.213,0-2.335c-1.604-0.134-3.183-0.385-4.752-0.738c-0.075-0.017-0.147-0.025-0.216-0.03
			c-1.376-0.633-2.906,0.378-2.853,2.012c-0.126,0.528-0.284,1.046-0.498,1.544c-0.756-0.123-1.514-0.244-2.27-0.369
			c-0.627-0.104-1.255,0.157-1.436,0.816c-0.156,0.565,0.187,1.333,0.816,1.437c1.067,0.179,2.134,0.344,3.201,0.521
			c0.578,0.095,1.15-0.12,1.381-0.668c0.077-0.075,0.146-0.157,0.195-0.259c0.079-0.162,0.151-0.326,0.223-0.492
			c0.862,1.232,1.722,2.467,2.583,3.701c0.024,0.033,0.049,0.064,0.074,0.095c-0.477,0.765-1.052,1.47-1.687,2.117
			C8.932,37.586,8.855,37.702,8.8,37.82c-0.123,0.164-0.211,0.367-0.233,0.613c-0.093,0.995-0.119,1.989-0.127,2.987H1.586
			C0.709,41.42,0,42.131,0,43.006v4.09c0,0.876,0.709,1.586,1.586,1.586h56.495c0.876,0,1.585-0.71,1.585-1.586V30.999
			C59.666,30.536,59.465,30.094,59.112,29.793z"/>
		<path style="fill:#010002;" d="M30.335,27.416c0-0.278-0.502-0.79-0.502-0.79s-0.501,0.512-0.501,0.79s0.225,0.502,0.501,0.502
			C30.11,27.918,30.335,27.693,30.335,27.416z"/>
		<path style="fill:#010002;" d="M27.334,30.479c0.278,0,0.503-0.227,0.503-0.503c0-0.278-0.503-0.789-0.503-0.789
			s-0.501,0.511-0.501,0.789C26.833,30.252,27.058,30.479,27.334,30.479z"/>
		<path style="fill:#010002;" d="M26.115,26.801c0,0.337,0.273,0.609,0.61,0.609s0.611-0.272,0.611-0.609s-0.611-0.958-0.611-0.958
			S26.115,26.464,26.115,26.801z"/>
	</g>
</g>
<g>
</g>
<g>
</g>
<g>
</g>
<g>
</g>
<g>
</g>
<g>
</g>
<g>
</g>
<g>
</g>
<g>
</g>
<g>
</g>
<g>
</g>
<g>
</g>
<g>
</g>
<g>
</g>
<g>
</g>
</svg>
