<?xml version="1.0" encoding="utf-8" ?>	<!-- Generator: Assembly 2.2 - http://assemblyapp.co -->	<svg version="1.1" xmlns="http://www.w3.org/2000/svg" xmlns:xlink="http://www.w3.org/1999/xlink" width="2048.00" height="2048.00" viewBox="0 0 2048.0 2048.0">		<g id="document" transform="matrix(1,0,0,1,1024.0,1024.0)">			<g>				<defs>					<filter id="k45LaWAI" x="-15.87%" y="-15.31%" width="138.11%" height="140.29%" filterUnits="objectBoundingBox">						<feOffset dx="-76.27" dy="-40.14" in="SourceAlpha" result="shadowOffsetOuter1" />						<feGaussianBlur stdDeviation="89.08" in="shadowOffsetOuter1" result="shadowBlurOuter1" />						<feFlood flood-color="#000000" flood-opacity="0.33" />						<feComposite in2="shadowBlurOuter1" operator="in" />						<feMerge>							<feMergeNode />							<feMergeNode in="SourceGraphic" />						</feMerge>					</filter>				</defs>				<path d="M861.748,201.867 L762.193,73.4092 L686.724,-47.0204 L543.814,-369.772 L497.248,-393.858 L349.521,-193.142 L301.349,-177.084 L171.285,314.268 L36.4042,437.909 L-238.175,362.44 L-352.182,444.332 L-612.31,1024 L980.572,1024 L861.748,201.867 Z M522.94,116.764 L388.059,198.656 L277.263,102.312 L327.041,-122.49 L375.213,-140.153 L497.248,-316.783 L519.728,-299.12 L649.792,-11.6944 L802.336,200.262 L522.94,116.764 Z " fill="#848484" fill-opacity="1.00" stroke-width="7.35" stroke="#000000" stroke-linecap="square" stroke-linejoin="miter" filter="url(#k45LaWAI)" />				<defs>					<filter id="BRf4g62f" x="-2.13%" y="-9.95%" width="122.80%" height="131.40%" filterUnits="objectBoundingBox">						<feOffset dx="111.62" dy="10.15" in="SourceAlpha" result="shadowOffsetOuter1" />						<feGaussianBlur stdDeviation="70.28" in="shadowOffsetOuter1" result="shadowBlurOuter1" />						<feFlood flood-color="#000000" flood-opacity="0.10" />						<feComposite in2="shadowBlurOuter1" operator="in" />						<feMerge>							<feMergeNode />							<feMergeNode in="SourceGraphic" />						</feMerge>					</filter>				</defs>				<path d="M319.528,1024 L-80.9597,572.098 L172.051,572.098 L-166.199,190.553 L63.8112,190.553 L-351.559,-277.585 L-769.636,190.553 L-538.273,190.553 L-877.876,572.098 L-622.159,572.098 L-1024,1024 L319.528,1024 Z " fill="#059900" fill-opacity="1.00" stroke-width="7.35" stroke="#000000" stroke-linecap="square" stroke-linejoin="miter" filter="url(#BRf4g62f)" />				<path d="M523.152,564.162 L523.152,412.129 C574.245,384.713 609.138,331.128 612.877,276.296 C612.877,261.342 595.43,255.111 585.461,263.835 C558.045,291.25 526.891,313.681 484.521,332.374 C484.521,332.374 482.028,332.374 479.536,332.374 L-45.1027,332.374 L-103.673,233.926 L-35.1333,126.755 C-26.4101,109.309 -37.6257,88.1241 -60.0568,93.1088 L-92.4573,100.586 C-84.9803,79.4009 -83.7341,54.4774 -83.7341,30.8002 C-83.7341,-106.279 -194.643,-213.45 -326.738,-213.45 C-369.108,-213.45 -408.985,-204.727 -446.37,-183.542 C-458.832,-176.065 -465.063,-158.618 -457.586,-146.156 C-450.109,-133.695 -432.663,-128.71 -420.201,-137.433 C-392.785,-152.387 -361.631,-158.618 -326.738,-158.618 C-258.198,-158.618 -202.121,-124.971 -165.982,-68.8937 C-193.397,-86.3401 -227.044,-96.3095 -261.937,-96.3095 C-276.891,-96.3095 -289.353,-83.8477 -289.353,-68.8937 C-289.353,-53.9396 -276.891,-41.4779 -261.937,-41.4779 C-199.628,-41.4779 -148.535,8.36902 -148.535,71.9239 C-148.535,74.4162 -148.535,79.4009 -148.535,84.3856 C-151.027,93.1088 -156.012,104.324 -160.997,114.294 L-185.92,119.278 C-194.643,121.771 -205.859,126.755 -215.828,131.74 L-364.123,238.911 C-389.046,268.819 -361.631,316.174 -321.753,307.451 L-248.229,290.004 L-165.982,540.485 L-278.137,653.887 C-299.322,675.072 -299.322,716.195 -275.645,736.134 L-107.411,884.429 L-107.411,972.907 C-107.411,1000.32 -86.2264,1022.75 -57.5645,1022.75 C-30.1486,1022.75 -7.71754,1001.57 -7.71754,972.907 L-7.71754,631.456 L250.24,631.456 L343.703,713.703 L257.717,959.199 C250.24,984.123 262.702,1014.03 287.625,1021.51 C292.61,1024 296.349,1024 302.58,1024 C322.518,1024 341.211,1011.54 348.688,991.6 L442.151,717.441 C449.628,696.257 442.151,671.333 427.197,655.133 L396.043,625.225 L445.889,625.225 L490.752,670.087 L490.752,970.415 C490.752,991.6 505.706,1015.28 529.383,1020.26 C561.784,1025.25 587.953,1002.82 587.953,970.415 L587.953,652.64 C587.953,637.686 582.968,622.732 570.507,610.271 L523.152,564.162 Z M-177.197,699.995 L-113.642,636.44 L-113.642,759.811 L-177.197,699.995 Z " fill="#895000" fill-opacity="1.00" stroke-width="7.35" stroke="#000000" stroke-linecap="square" stroke-linejoin="miter" />			</g>		</g>	</svg>